<?xml version="1.0" encoding="UTF-8"?>
<svg width="24" height="24" viewBox="0 0 24 24" fill="none" xmlns="http://www.w3.org/2000/svg" role="img" aria-label="LinkedIn icon">
  <rect width="24" height="24" rx="4" fill="#0A66C2"/>
  <path d="M8.6 17H6.1V9.4h2.5V17ZM7.35 8.3c-.8 0-1.35-.53-1.35-1.2 0-.7.56-1.2 1.38-1.2.82 0 1.35.5 1.37 1.2 0 .67-.55 1.2-1.4 1.2ZM18 17h-2.5v-4.1c0-1.02-.73-1.28-1.01-1.28-.29 0-1.04.18-1.04 1.28V17H11v-7.6h2.45v.9c.35-.52 1.07-.9 2.05-.9 1.66 0 2.5 1.1 2.5 3.02V17Z" fill="white"/>
</svg>
